<?xml version="1.0" encoding="utf-8"?>
<!-- Generator: Adobe Illustrator 18.1.1, SVG Export Plug-In . SVG Version: 6.00 Build 0)  -->
<svg version="1.1" id="Layer_1" xmlns="http://www.w3.org/2000/svg" xmlns:xlink="http://www.w3.org/1999/xlink" x="0px" y="0px"
	 viewBox="0 0 24 24" enable-background="new 0 0 24 24" xml:space="preserve">
<g>
	<path fill-rule="evenodd" clip-rule="evenodd" d="M21,22c1,0,1-1,1-1V7c0-1-1-1-1-1H9C8,6,8,7,8,7v14c0,1,1,1,1,1H21z M10,7
		c0,0-1,0-1,1v12c0,0,0,1,1,1h10c0,0,1,0,1-1V8c0,0,0-1-1-1H10z"/>
	<path fill-rule="evenodd" clip-rule="evenodd" d="M7,18c-2.2,0-4,0-4,0s-1,0-1-1V3c0,0,0-1,1-1h12c0,0,1,0,1,1c0,0,0,0.8,0,2h-1
		c0-0.6,0-1,0-1s0-1-1-1H4c0,0-1,0-1,1v12c0,0,0,1,1,1c0,0,1.3,0,3,0V18z"/>
	<path fill-rule="evenodd" clip-rule="evenodd" d="M5,13h2v2H5V13z"/>
	<path fill-rule="evenodd" clip-rule="evenodd" d="M5,9h2v2H5V9z"/>
	<path fill-rule="evenodd" clip-rule="evenodd" d="M5,5v2h2V5H5z"/>
	<path fill-rule="evenodd" clip-rule="evenodd" d="M11,9h8v2h-8V9z"/>
	<path fill-rule="evenodd" clip-rule="evenodd" d="M11,13h8v2h-8V13z"/>
	<path fill-rule="evenodd" clip-rule="evenodd" d="M11,17h8v2h-8V17z"/>
</g>
</svg>
