<?xml version="1.0" encoding="utf-8"?>
<!-- Generator: Adobe Illustrator 18.1.1, SVG Export Plug-In . SVG Version: 6.00 Build 0)  -->
<svg version="1.1" id="Layer_1" xmlns="http://www.w3.org/2000/svg" xmlns:xlink="http://www.w3.org/1999/xlink" x="0px" y="0px"
	 viewBox="0 0 224 30" enable-background="new 0 0 224 30" xml:space="preserve">
<path fill="#FFFFFF" d="M18.5,10.2c2.6-1.6,3.9-3.6,3.9-5.8c0-1.1-0.5-2-1.4-2.7c-0.9-0.7-2.1-1.1-3.5-1.1c-1.7,0-4,0.6-6.8,1.7
	C9.4,2.8,8.5,3.3,8,3.6C7.7,3.8,7.5,4.1,7.5,4.6c0,0.3,0.1,0.5,0.2,0.7c0.2,0.2,0.3,0.3,0.5,0.3C8.4,5.6,9,5.4,9.8,5
	c1-0.5,1.9-0.8,2.6-1.1c-0.3,0.6-0.7,1.1-1,1.7c-1.5,2.3-2.6,4.1-3.4,5.5c-1.8,3.1-3,5.2-3.6,6.3c-0.9,1.8-2,4.3-3.2,7.4
	c-0.6,1.5-0.9,2.5-0.9,3c0,0.3,0.1,0.6,0.3,1c0.3,0.5,0.6,0.7,1,0.7c0.4,0,0.7-0.3,0.8-1c0-0.1,0.1-0.4,0.2-0.7c1.6,0.7,3.1,1,4.4,1
	c1.8,0,3.5-0.5,5.1-1.4c1.7-0.9,3-2.1,4.1-3.7c1.1-1.7,1.7-3.5,1.7-5.3c0-1.6-0.6-2.9-1.7-4.1c-0.7-0.7-1.6-1.3-2.9-1.7
	C15.2,12,16.9,11.2,18.5,10.2L18.5,10.2z M12,8.6c0.8-1.1,1.2-1.8,1.4-2.1c0.4-0.6,0.7-1,0.8-1.2c0.5-0.6,0.7-1.1,0.7-1.4
	c0-0.3-0.1-0.5-0.3-0.7c0.6-0.2,1.2-0.4,1.7-0.5c0.5-0.1,1.1-0.2,1.5-0.2c0.7,0,1.3,0.1,1.7,0.4c0.6,0.4,0.9,0.9,0.9,1.5
	c0,1.4-1.2,2.9-3.6,4.3c-2.1,1.2-4.2,2.1-6.6,2.5C10.7,10.6,11.2,9.7,12,8.6L12,8.6z M5.3,20.5c1.4-3,2.6-5.3,3.7-7
	c0.2,0.5,0.5,0.7,0.8,0.7c0.1,0,0.2,0,0.4,0c0.7-0.2,1.2-0.2,1.5-0.2c0.9,0,1.7,0.2,2.4,0.7c1.1,0.8,1.7,1.8,1.7,3.1
	c0,1.9-0.7,3.8-2.2,5.8c-1.8,2.3-4.1,3.5-7,3.5c-1,0-1.8-0.1-2.3-0.3c-0.2-0.1-0.6-0.3-1-0.5C3.9,23.8,4.6,22,5.3,20.5L5.3,20.5z"/>
<path fill="#FFFFFF" d="M23.9,15.1c-0.2,0.2-0.6,0.7-1.1,1.5c-1.5,2.2-2.6,4.2-3.3,6.1c-0.9,2.3-1.3,3.7-1.3,4.1
	c0,0.2,0.1,0.4,0.2,0.6c0.2,0.2,0.4,0.3,0.7,0.3c0.5,0,0.8-0.3,1-1c0.5-1.5,1.1-3,1.7-4.5c0.6-1.4,1.6-3.2,3-5.4
	c0.4-0.6,0.6-1,0.6-1.2c0-0.2-0.1-0.3-0.2-0.5c-0.2-0.2-0.3-0.3-0.6-0.3C24.4,14.7,24.1,14.9,23.9,15.1L23.9,15.1z M27.1,8
	C26.4,8.7,26,9.4,26,10c0,0.3,0.1,0.5,0.2,0.7c0.2,0.2,0.4,0.3,0.6,0.3c0.5,0,1.1-0.3,1.7-1c0.6-0.7,0.9-1.3,0.9-1.9
	c0-0.6-0.3-0.9-0.9-0.9C28.1,7.1,27.6,7.4,27.1,8L27.1,8z"/>
<path fill="#FFFFFF" d="M30,17.7c0.4-0.6,0.6-1,0.6-1.3c0-0.2-0.1-0.5-0.3-0.7c-0.2-0.2-0.3-0.2-0.5-0.2c-0.4,0-0.8,0.4-1.3,1.1
	c-0.5,0.8-1.2,2-2.1,3.7c-1.7,3.1-2.5,5.1-2.5,5.8c0,0.3,0.1,0.5,0.3,0.7c0.2,0.2,0.3,0.2,0.6,0.2c0.5,0,0.9-0.4,1.3-1.1
	c1.6-3,3.3-5.1,5.2-6.3c-1.4,2.2-2.1,4.3-2.1,6.1c0,1,0.2,1.8,0.6,2.4c0.4,0.7,0.9,1.1,1.4,1.1c0.2,0,0.5-0.1,0.6-0.3
	c0.2-0.2,0.2-0.3,0.2-0.5c0-0.2-0.1-0.4-0.3-0.7c-0.4-0.7-0.6-1.4-0.6-2.2c0-2.3,1.3-5,3.9-8.1c0.5-0.6,0.7-1,0.7-1.5
	c0-0.6-0.3-0.9-0.8-0.9c-1,0-2.9,1.4-5.7,4.2c-0.2,0.2-0.3,0.3-0.5,0.5C29,19.3,29.4,18.6,30,17.7L30,17.7z"/>
<path fill="#FFFFFF" d="M41.6,25c0,0.8,0.2,1.5,0.7,2c0.5,0.7,1.2,1,1.9,1c0.3,0,0.5-0.1,0.7-0.3c0.2-0.2,0.3-0.4,0.3-0.6
	c0-0.4-0.2-0.7-0.5-0.9c-0.5-0.2-0.7-0.4-0.8-0.5c-0.3-0.4-0.5-0.8-0.5-1.4c0-0.7,0.2-1.7,0.6-2.8c0.4-1.1,0.8-2,1.2-2.7
	c0.4-0.7,0.6-1.1,0.6-1.4c0-0.2-0.1-0.5-0.3-0.8c0.2-0.5,0.3-1,0.3-1.3c0-0.4-0.2-0.8-0.5-1.1c-0.4-0.4-0.9-0.5-1.4-0.5
	c-0.9,0-1.9,0.4-2.9,1.1c-1.5,1.1-2.8,2.7-3.9,4.7c-1,1.8-1.4,3.5-1.4,5c0,0.6,0.1,1.1,0.4,1.6c0.4,0.7,1,1,1.7,1
	c0.8,0,1.7-0.5,2.6-1.6c0.4-0.5,0.9-1.2,1.3-2C41.6,24.3,41.6,24.7,41.6,25L41.6,25z M43.6,17.5c-0.2,0.3-0.6,1-1,1.9
	c-0.7,1.5-1.3,2.6-1.8,3.4c-0.9,1.4-1.6,2.1-2.3,2.1c-0.3,0-0.5-0.1-0.6-0.3c-0.1-0.2-0.2-0.4-0.2-0.8c0-1.4,0.7-3.1,2-5.1
	c1.2-1.8,2.3-2.7,3.4-2.7c0.2,0,0.4,0.1,0.6,0.2c0.2,0.1,0.4,0.4,0.5,0.7C43.9,17.1,43.7,17.3,43.6,17.5L43.6,17.5z"/>
<path fill="#FFFFFF" d="M60.2,19.4c-0.7,0.2-1.2,0.6-1.7,1.1c-0.8,0.8-1.2,1.8-1.2,3c0,1.1,0.4,2,1.3,2.8c1.1,1.1,2.6,1.6,4.6,1.6
	c2,0,3.8-0.5,5.3-1.6c1.8-1.2,2.8-2.7,2.8-4.3c0-0.8-0.3-1.7-0.8-2.7c-0.4-0.8-1-1.7-1.6-2.6c-0.7-1-1.2-1.9-1.6-2.6
	c-0.5-1-0.8-1.9-0.8-2.8c0-1.3,0.5-2.5,1.4-3.9c1.1-1.5,2.6-2.8,4.5-3.8C73.8,2.9,75,2.6,76,2.6c0.4,0,0.7,0.1,0.9,0.3
	c0.3,0.2,0.5,0.6,0.5,1c0,1-0.8,2.2-2.5,3.6c-1.3,1.1-2.7,1.9-4.4,2.5c-0.9,0.3-1.4,0.7-1.4,1.2c0,0.2,0.1,0.4,0.2,0.6
	c0.2,0.3,0.5,0.4,0.8,0.4c0.5,0,1.2-0.2,2.1-0.7c1.9-0.9,3.5-2.2,4.9-3.7c1.5-1.6,2.2-3.1,2.2-4.4c0-0.9-0.3-1.6-1-2.1
	c-0.6-0.4-1.2-0.6-2.1-0.6c-1.2,0-2.5,0.3-3.9,0.9c-1.6,0.7-3.1,1.7-4.4,2.8c-2.5,2.2-3.8,4.6-3.8,7.2c0,1.1,0.3,2.2,0.9,3.3
	c0.6,1,1.3,2.1,2.1,3.4c0.5,0.8,0.9,1.4,1.2,2c0.2,0.5,0.4,1.1,0.4,1.7c0,1-0.4,1.9-1.3,2.5c-1.4,1.1-2.9,1.6-4.7,1.6
	c-0.9,0-1.6-0.2-2.2-0.6c-0.7-0.5-1-1.2-1-2.1c0-1.1,0.6-1.9,1.8-2.3c0.7-0.2,1-0.6,1-1c0-0.6-0.4-0.9-1.1-0.9
	C61,19.1,60.6,19.2,60.2,19.4L60.2,19.4z"/>
<path fill="#FFFFFF" d="M78.8,17c0.5-0.8,0.8-1.2,0.8-1.4c0-0.4-0.2-0.7-0.6-0.7c-0.5,0-1.1,0.6-1.9,1.9c-1.2,1.8-2.3,3.8-3.2,6
	c-0.9,2.1-1.4,3.6-1.4,4.4c0,0.2,0.1,0.4,0.2,0.6c0.1,0.2,0.3,0.2,0.5,0.2c0.5,0,0.9-0.3,1.1-1c1.2-3.1,2.9-5.5,5.3-7.3
	c-0.6,1.1-1.2,2.2-1.6,3.2c-0.8,1.8-1.1,2.9-1.1,3.5c0,0.5,0.2,0.8,0.7,0.8c0.4,0,0.8-0.3,1.1-0.9c0.7-1.3,1.4-2.4,2.2-3.5
	c1.2-1.5,2.4-2.7,3.5-3.6c-0.6,0.8-1,1.4-1.2,1.8c-0.7,1.3-1.1,2.5-1.1,3.8c0,0.9,0.2,1.7,0.7,2.4c0.4,0.6,0.8,0.9,1.3,0.9
	c0.3,0,0.5-0.1,0.7-0.3c0.2-0.2,0.3-0.4,0.3-0.6c0-0.2-0.1-0.3-0.2-0.5l-0.5-0.7C84.1,25.5,84,25,84,24.3c0-1.7,1.3-3.9,3.9-6.6
	c0.6-0.6,0.9-1.1,0.9-1.5c0-0.2-0.1-0.5-0.3-0.6c-0.2-0.2-0.4-0.2-0.6-0.2c-1.2,0-3.4,1.6-6.6,4.8c0.3-0.7,0.8-1.4,1.5-2.4
	c0.5-0.6,0.7-1,0.7-1.3c0-0.2-0.1-0.3-0.2-0.5c-0.2-0.2-0.4-0.2-0.6-0.2c-0.5,0-1.3,0.5-2.7,1.5c-0.9,0.7-1.9,1.6-3,2.8
	C77.3,19.5,77.9,18.4,78.8,17L78.8,17z"/>
<path fill="#FFFFFF" d="M94.4,25c0,0.8,0.2,1.5,0.7,2c0.5,0.7,1.2,1,1.9,1c0.3,0,0.5-0.1,0.7-0.3c0.2-0.2,0.3-0.4,0.3-0.6
	c0-0.4-0.2-0.7-0.5-0.9c-0.5-0.2-0.7-0.4-0.8-0.5c-0.3-0.4-0.5-0.8-0.5-1.4c0-0.7,0.2-1.7,0.6-2.8c0.4-1.1,0.8-2,1.2-2.7
	c0.4-0.7,0.6-1.1,0.6-1.4c0-0.2-0.1-0.5-0.3-0.8c0.2-0.5,0.3-1,0.3-1.3c0-0.4-0.2-0.8-0.5-1.1c-0.4-0.4-0.9-0.5-1.4-0.5
	c-0.9,0-1.9,0.4-2.9,1.1c-1.5,1.1-2.8,2.7-3.9,4.7c-1,1.8-1.4,3.5-1.4,5c0,0.6,0.1,1.1,0.4,1.6c0.4,0.7,1,1,1.7,1
	c0.8,0,1.7-0.5,2.6-1.6c0.4-0.5,0.9-1.2,1.3-2C94.4,24.3,94.4,24.7,94.4,25L94.4,25z M96.4,17.5c-0.2,0.3-0.6,1-1,1.9
	c-0.7,1.5-1.3,2.6-1.8,3.4c-0.9,1.4-1.6,2.1-2.3,2.1c-0.3,0-0.5-0.1-0.6-0.3c-0.1-0.2-0.2-0.4-0.2-0.8c0-1.4,0.7-3.1,2-5.1
	c1.2-1.8,2.3-2.7,3.4-2.7c0.2,0,0.4,0.1,0.6,0.2c0.2,0.1,0.4,0.4,0.5,0.7C96.7,17.1,96.5,17.3,96.4,17.5L96.4,17.5z"/>
<path fill="#FFFFFF" d="M104.4,17.9c0.7-0.8,1-1.3,1.1-1.4c0.3-0.4,0.4-0.7,0.4-0.9c0-0.2-0.1-0.4-0.3-0.5c-0.2-0.1-0.3-0.2-0.5-0.2
	c-0.5,0-1.2,0.5-2,1.5c-1.3,1.7-2.5,4-3.7,7c-0.8,2-1.2,3.3-1.2,3.7c0,0.5,0.3,0.7,0.8,0.7c0.5,0,0.9-0.3,1.2-0.9
	c0.8-1.7,1.7-3.1,2.5-4.2c1.5-1.9,2.7-3.2,3.8-3.9c-0.3,0.4-0.4,0.8-0.4,1.2c0,0.5,0.2,0.8,0.5,1c0.4,0.2,0.8,0.3,1.2,0.3
	c1.1,0,2.2-0.5,3.4-1.4c1.1-0.8,1.7-1.5,1.7-1.9c0-0.1-0.1-0.3-0.2-0.4c-0.1-0.1-0.2-0.2-0.3-0.2c-0.2,0-0.4,0.1-0.6,0.2
	c-1.4,1-2.4,1.5-3,1.5c-0.4,0-0.5-0.2-0.5-0.5c0-0.6,0.7-1.4,2.1-2.5c0.5-0.4,0.8-0.8,0.8-1c0-0.1-0.1-0.3-0.2-0.5
	c-0.2-0.3-0.4-0.5-0.6-0.5c-0.1,0-0.3,0.1-0.7,0.3c-0.7,0.4-1.4,0.9-2,1.4c-1.8,1.4-3.3,2.8-4.6,4.2
	C103.3,19.5,103.8,18.7,104.4,17.9L104.4,17.9z"/>
<path fill="#FFFFFF" d="M121.1,13.3c1.8-0.5,2.9-0.8,3.1-0.8c0.6-0.1,0.9-0.1,1.1-0.2c0.3-0.2,0.4-0.4,0.4-0.7
	c0-0.6-0.4-0.9-1.1-0.9c-0.7,0-1.7,0.2-3.3,0.6c0.2-0.4,0.6-1,1.1-1.7c0.8-1.1,1.1-1.8,1.1-2.1c0-0.2-0.1-0.4-0.2-0.5
	c-0.2-0.2-0.4-0.3-0.5-0.3c-0.2,0-0.5,0.2-0.9,0.5c-0.2,0.2-0.6,0.8-1.3,1.6c-1.1,1.5-1.9,2.6-2.3,3.5c-0.6,0.2-1.1,0.3-1.4,0.4
	c-0.9,0.1-1.4,0.2-1.5,0.3c-0.4,0.2-0.6,0.5-0.6,0.8c0,0.3,0.2,0.5,0.5,0.7c0.2,0.1,0.5,0.2,0.8,0.2c0.2,0,0.5,0,0.8-0.1
	c-1.1,2.1-1.7,3.4-1.9,4c-1,2.2-1.4,4.1-1.4,5.8c0,0.8,0.1,1.3,0.4,1.7c0.5,0.6,1,1,1.7,1c1.3,0,2.8-1.1,4.3-3.2
	c1.3-1.7,2-2.9,2-3.4c0-0.1-0.1-0.2-0.2-0.4c-0.1-0.1-0.3-0.2-0.5-0.2c-0.3,0-0.6,0.2-0.8,0.7c-0.5,0.8-1,1.6-1.6,2.4
	c-1,1.3-1.8,1.9-2.5,1.9c-0.3,0-0.5-0.1-0.6-0.3c-0.1-0.2-0.2-0.4-0.2-0.8c0-1.2,0.5-3,1.6-5.5c0.8-1.7,1.6-3.3,2.5-4.6
	C120.1,13.7,120.6,13.5,121.1,13.3L121.1,13.3z"/>
<path fill="#FFFFFF" d="M150.9,10.2c2.6-1.6,3.9-3.6,3.9-5.8c0-1.1-0.5-2-1.4-2.7c-0.9-0.7-2.1-1.1-3.5-1.1c-1.7,0-4,0.6-6.8,1.7
	c-1.3,0.5-2.3,1-2.8,1.4c-0.3,0.2-0.4,0.5-0.4,0.9c0,0.3,0.1,0.5,0.2,0.7c0.2,0.2,0.3,0.3,0.5,0.3c0.2,0,0.7-0.2,1.5-0.6
	c1-0.5,1.9-0.8,2.6-1.1c-0.3,0.6-0.7,1.1-1,1.7c-1.5,2.3-2.6,4.1-3.4,5.5c-1.8,3.1-3,5.2-3.6,6.3c-0.9,1.8-2,4.3-3.2,7.4
	c-0.6,1.5-0.9,2.5-0.9,3c0,0.3,0.1,0.6,0.3,1c0.3,0.5,0.6,0.7,1,0.7c0.4,0,0.7-0.3,0.8-1c0-0.1,0.1-0.4,0.2-0.7c1.6,0.7,3.1,1,4.4,1
	c1.8,0,3.5-0.5,5.1-1.4c1.7-0.9,3-2.1,4.1-3.7c1.1-1.7,1.7-3.5,1.7-5.3c0-1.6-0.6-2.9-1.7-4.1c-0.7-0.7-1.6-1.3-2.9-1.7
	C147.6,12,149.3,11.2,150.9,10.2L150.9,10.2z M144.4,8.6c0.8-1.1,1.2-1.8,1.4-2.1c0.4-0.6,0.7-1,0.8-1.2c0.5-0.6,0.7-1.1,0.7-1.4
	c0-0.3-0.1-0.5-0.3-0.7c0.6-0.2,1.2-0.4,1.7-0.5c0.5-0.1,1.1-0.2,1.5-0.2c0.7,0,1.3,0.1,1.7,0.4c0.6,0.4,0.9,0.9,0.9,1.5
	c0,1.4-1.2,2.9-3.6,4.3c-2.1,1.2-4.2,2.1-6.6,2.5C143.1,10.6,143.6,9.7,144.4,8.6L144.4,8.6z M137.7,20.5c1.4-3,2.6-5.3,3.7-7
	c0.2,0.5,0.5,0.7,0.8,0.7c0.1,0,0.2,0,0.4,0c0.7-0.2,1.2-0.2,1.5-0.2c0.9,0,1.7,0.2,2.4,0.7c1.1,0.8,1.7,1.8,1.7,3.1
	c0,1.9-0.7,3.8-2.2,5.8c-1.8,2.3-4.1,3.5-7,3.5c-1,0-1.8-0.1-2.3-0.3c-0.2-0.1-0.6-0.3-1-0.5C136.3,23.8,137,22,137.7,20.5
	L137.7,20.5z"/>
<path fill="#FFFFFF" d="M157.5,25c0.1,0.9,0.5,1.6,1,2.1c0.6,0.5,1.2,0.8,1.9,0.8c0.3,0,0.6-0.1,0.8-0.3c0.2-0.2,0.3-0.4,0.3-0.6
	c0-0.4-0.2-0.7-0.5-0.9c-0.6-0.4-1-0.6-1.1-0.8c-0.5-0.6-0.7-1.3-0.7-2.2c0-0.8,0.3-1.8,1-3c0.9-1.7,1.4-2.8,1.4-3.3
	c0-0.2-0.1-0.4-0.3-0.6c-0.2-0.2-0.3-0.3-0.6-0.3c-0.4,0-0.7,0.2-1.1,0.7c-0.4,0.5-0.7,1.1-1,1.8c-0.5,1.3-1,2.4-1.7,3.4
	c-1.2,2-2.2,3-2.9,3c-0.2,0-0.3-0.1-0.4-0.2c-0.1-0.1-0.1-0.2-0.1-0.4c0-0.8,0.3-1.8,1-3.1c0.6-1.1,1.4-2.4,2.6-3.7
	c0.5-0.6,0.8-1,0.8-1.3c0-0.2-0.1-0.3-0.2-0.5c-0.2-0.2-0.3-0.2-0.5-0.2c-0.3,0-0.8,0.2-1.3,0.7c-0.7,0.6-1.4,1.4-2.1,2.4
	c-1.5,2.3-2.3,4.3-2.3,6.1c0,0.6,0.1,1.1,0.4,1.5c0.4,0.6,0.9,0.9,1.6,0.9c0.8,0,1.6-0.4,2.4-1.3c0.5-0.5,1-1.1,1.6-2
	C157.4,24.5,157.5,24.8,157.5,25L157.5,25z"/>
<path fill="#FFFFFF" d="M167.4,14.9c-1.5,1.1-2.2,2.3-2.2,3.6c0,1,0.5,2.2,1.4,3.4c0.7,0.9,1,1.7,1,2.2c0,0.5-0.1,0.8-0.4,1.1
	c-0.3,0.4-0.7,0.5-1.3,0.5c-0.5,0-1-0.2-1.5-0.6c-0.5-0.5-0.7-1-0.7-1.7c0-0.8,0.2-1.5,0.5-2.1c0.1-0.2,0.2-0.4,0.2-0.5
	c0-0.3-0.2-0.4-0.5-0.4c-0.4,0-0.8,0.2-1.1,0.7c-0.5,0.7-0.8,1.6-0.8,2.7c0,0.9,0.2,1.7,0.7,2.4c0.7,0.9,1.7,1.4,3,1.4
	c0.8,0,1.6-0.2,2.2-0.6c1.1-0.7,1.6-1.6,1.6-2.8c0-0.8-0.4-1.8-1.2-3c-0.7-1.1-1.1-2-1.1-2.7c0-1,0.6-1.9,1.7-2.6c1-0.6,1.8-1,2.6-1
	c0.3,0,0.6,0.1,0.7,0.2c0.2,0.1,0.2,0.3,0.2,0.6c0,0.4-0.2,0.7-0.6,1c-0.4,0.4-0.9,0.6-1.4,0.7c-0.8,0.2-1.3,0.3-1.4,0.3
	c-0.3,0.2-0.5,0.4-0.5,0.8c0,0.5,0.3,0.8,0.9,0.8c0.4,0,1-0.1,1.6-0.3c1.1-0.4,2-1,2.6-1.7c0.6-0.8,0.9-1.5,0.9-2.3
	c0-0.6-0.2-1.1-0.6-1.4c-0.4-0.3-1.1-0.5-1.9-0.5C170.4,13.4,168.8,13.9,167.4,14.9L167.4,14.9z"/>
<path fill="#FFFFFF" d="M177.9,15.1c-0.2,0.2-0.6,0.7-1.1,1.5c-1.5,2.2-2.6,4.2-3.3,6.1c-0.9,2.3-1.3,3.7-1.3,4.1
	c0,0.2,0.1,0.4,0.2,0.6c0.2,0.2,0.4,0.3,0.7,0.3c0.5,0,0.8-0.3,1-1c0.5-1.5,1.1-3,1.7-4.5c0.6-1.4,1.6-3.2,3-5.4
	c0.4-0.6,0.6-1,0.6-1.2c0-0.2-0.1-0.3-0.2-0.5c-0.2-0.2-0.3-0.3-0.6-0.3C178.4,14.7,178.1,14.9,177.9,15.1L177.9,15.1z M181.1,8
	c-0.7,0.7-1.1,1.4-1.1,2.1c0,0.3,0.1,0.5,0.2,0.7c0.2,0.2,0.4,0.3,0.6,0.3c0.5,0,1.1-0.3,1.7-1c0.6-0.7,0.9-1.3,0.9-1.9
	c0-0.6-0.3-0.9-0.9-0.9C182.1,7.1,181.6,7.4,181.1,8L181.1,8z"/>
<path fill="#FFFFFF" d="M184,17.7c0.4-0.6,0.6-1,0.6-1.3c0-0.2-0.1-0.5-0.3-0.7c-0.2-0.2-0.3-0.2-0.5-0.2c-0.4,0-0.8,0.4-1.3,1.1
	c-0.5,0.8-1.2,2-2.1,3.7c-1.7,3.1-2.5,5.1-2.5,5.8c0,0.3,0.1,0.5,0.3,0.7c0.2,0.2,0.3,0.2,0.6,0.2c0.5,0,0.9-0.4,1.3-1.1
	c1.6-3,3.3-5.1,5.2-6.3c-1.4,2.2-2.1,4.3-2.1,6.1c0,1,0.2,1.8,0.6,2.4c0.4,0.7,0.9,1.1,1.4,1.1c0.2,0,0.5-0.1,0.6-0.3
	c0.2-0.2,0.2-0.3,0.2-0.5c0-0.2-0.1-0.4-0.3-0.7c-0.4-0.7-0.6-1.4-0.6-2.2c0-2.3,1.3-5,3.9-8.1c0.5-0.6,0.7-1,0.7-1.5
	c0-0.6-0.3-0.9-0.8-0.9c-1,0-2.9,1.4-5.7,4.2c-0.2,0.2-0.3,0.3-0.5,0.5C182.9,19.3,183.4,18.6,184,17.7L184,17.7z"/>
<path fill="#FFFFFF" d="M197.4,18.6c0.7-1.1,1-1.9,1-2.7c0-0.5-0.2-0.8-0.5-1.1c-0.3-0.2-0.6-0.3-1-0.3c-1.3,0-2.9,0.9-4.6,2.7
	c-2.2,2.2-3.3,4.5-3.3,6.8c0,0.8,0.2,1.5,0.6,2c0.6,0.7,1.4,1.1,2.4,1.1c1,0,2.1-0.3,3.2-0.9c1.2-0.6,2.3-1.4,3.3-2.4
	c1.3-1.3,2-2.2,2-2.7c0-0.1,0-0.2-0.1-0.3c-0.1-0.2-0.3-0.2-0.4-0.2c-0.3,0-0.6,0.2-1,0.7c-2.2,2.6-4.2,3.9-5.9,3.9
	c-0.8,0-1.3-0.3-1.7-0.8c-0.2-0.2-0.2-0.5-0.2-0.8v-0.4C194,22.3,196.1,20.7,197.4,18.6L197.4,18.6z M194.6,17.4
	c0.7-0.5,1.2-0.8,1.5-0.8c0.3,0,0.4,0.1,0.4,0.4c0,0.3-0.1,0.6-0.3,0.9c-0.6,0.9-1.3,1.8-2.3,2.5c-0.5,0.4-1.3,0.8-2.3,1.1
	C192.4,19.7,193.4,18.3,194.6,17.4L194.6,17.4z"/>
<path fill="#FFFFFF" d="M205.9,14.9c-1.5,1.1-2.2,2.3-2.2,3.6c0,1,0.5,2.2,1.4,3.4c0.7,0.9,1,1.7,1,2.2c0,0.5-0.1,0.8-0.4,1.1
	c-0.3,0.4-0.7,0.5-1.3,0.5c-0.5,0-1-0.2-1.5-0.6c-0.5-0.5-0.7-1-0.7-1.7c0-0.8,0.2-1.5,0.5-2.1c0.1-0.2,0.2-0.4,0.2-0.5
	c0-0.3-0.2-0.4-0.5-0.4c-0.4,0-0.8,0.2-1.1,0.7c-0.5,0.7-0.8,1.6-0.8,2.7c0,0.9,0.2,1.7,0.7,2.4c0.7,0.9,1.7,1.4,3,1.4
	c0.8,0,1.6-0.2,2.2-0.6c1.1-0.7,1.6-1.6,1.6-2.8c0-0.8-0.4-1.8-1.2-3c-0.7-1.1-1.1-2-1.1-2.7c0-1,0.6-1.9,1.7-2.6c1-0.6,1.8-1,2.6-1
	c0.3,0,0.6,0.1,0.7,0.2c0.2,0.1,0.2,0.3,0.2,0.6c0,0.4-0.2,0.7-0.6,1c-0.4,0.4-0.9,0.6-1.4,0.7c-0.8,0.2-1.3,0.3-1.4,0.3
	c-0.3,0.2-0.5,0.4-0.5,0.8c0,0.5,0.3,0.8,0.9,0.8c0.4,0,1-0.1,1.6-0.3c1.1-0.4,2-1,2.6-1.7c0.6-0.8,0.9-1.5,0.9-2.3
	c0-0.6-0.2-1.1-0.6-1.4c-0.4-0.3-1.1-0.5-1.9-0.5C208.9,13.4,207.4,13.9,205.9,14.9L205.9,14.9z"/>
<path fill="#FFFFFF" d="M216.6,14.9c-1.5,1.1-2.2,2.3-2.2,3.6c0,1,0.5,2.2,1.4,3.4c0.7,0.9,1,1.7,1,2.2c0,0.5-0.1,0.8-0.4,1.1
	c-0.3,0.4-0.7,0.5-1.3,0.5c-0.5,0-1-0.2-1.5-0.6c-0.5-0.5-0.7-1-0.7-1.7c0-0.8,0.2-1.5,0.5-2.1c0.1-0.2,0.2-0.4,0.2-0.5
	c0-0.3-0.2-0.4-0.5-0.4c-0.4,0-0.8,0.2-1.1,0.7c-0.5,0.7-0.8,1.6-0.8,2.7c0,0.9,0.2,1.7,0.7,2.4c0.7,0.9,1.7,1.4,3,1.4
	c0.8,0,1.6-0.2,2.2-0.6c1.1-0.7,1.6-1.6,1.6-2.8c0-0.8-0.4-1.8-1.2-3c-0.7-1.1-1.1-2-1.1-2.7c0-1,0.6-1.9,1.7-2.6c1-0.6,1.8-1,2.6-1
	c0.3,0,0.6,0.1,0.7,0.2c0.2,0.1,0.2,0.3,0.2,0.6c0,0.4-0.2,0.7-0.6,1c-0.4,0.4-0.9,0.6-1.4,0.7c-0.8,0.2-1.3,0.3-1.4,0.3
	c-0.3,0.2-0.5,0.4-0.5,0.8c0,0.5,0.3,0.8,0.9,0.8c0.4,0,1-0.1,1.6-0.3c1.1-0.4,2-1,2.6-1.7c0.6-0.8,0.9-1.5,0.9-2.3
	c0-0.6-0.2-1.1-0.6-1.4c-0.4-0.3-1.1-0.5-1.9-0.5C219.6,13.4,218.1,13.9,216.6,14.9L216.6,14.9z"/>
</svg>
